<svg width="41" height="41" viewBox="0 0 41 41" fill="none" xmlns="http://www.w3.org/2000/svg">
<path d="M0.5 0.5V40.5" stroke="#E2E8F0" stroke-linecap="round"/>
<path d="M27.6077 18.351C27.6077 18.8168 27.2301 19.1943 26.7644 19.1943H25.7602V26.5C25.7602 27.0523 25.3125 27.5 24.7602 27.5H24.6773C24.125 27.5 23.6773 27.0523 23.6773 26.5V19.1943H23.3433C22.8775 19.1943 22.5 18.8168 22.5 18.351C22.5 17.8853 22.8775 17.5078 23.3433 17.5078H23.6773V16.8005C23.6773 15.652 23.9792 14.8178 24.5829 14.2979C25.0544 13.8906 25.7277 13.6393 26.6027 13.5438C27.0756 13.4922 27.4628 13.8857 27.4628 14.3614C27.4628 14.8371 27.0658 15.189 26.6108 15.3281C26.4143 15.3882 26.2575 15.474 26.1406 15.5855C25.887 15.8152 25.7602 16.2202 25.7602 16.8005V17.5078H26.7644C27.2301 17.5078 27.6077 17.8853 27.6077 18.351Z" fill="#64748B"/>
<path d="M32.0729 19.1943V24.7254C32.0729 25.1002 32.1575 25.3722 32.3265 25.5415C32.5076 25.6986 32.8095 25.7772 33.2321 25.7772H33.6386C34.1143 25.7772 34.5 26.1629 34.5 26.6386C34.5 27.1143 34.1143 27.5 33.6386 27.5H32.8699C31.9401 27.5 31.2277 27.2824 30.7326 26.8471C30.2376 26.4119 29.99 25.7047 29.99 24.7254V19.1943H29.656C29.1903 19.1943 28.8127 18.8168 28.8127 18.351C28.8127 17.8853 29.1903 17.5078 29.656 17.5078H29.99V16.0233C29.99 15.471 30.4377 15.0233 30.99 15.0233H31.0729C31.6252 15.0233 32.0729 15.471 32.0729 16.0233V17.5078H33.6567C34.1225 17.5078 34.5 17.8853 34.5 18.351C34.5 18.8168 34.1225 19.1943 33.6567 19.1943H32.0729Z" fill="#64748B"/>
</svg>
