<svg width="20" height="20" viewBox="0 0 20 20" fill="none" xmlns="http://www.w3.org/2000/svg">
<path d="M4.58342 4.16797H15.4168C15.5368 4.21006 15.6456 4.27906 15.7348 4.36969C15.824 4.46032 15.8913 4.57016 15.9315 4.69082C15.9718 4.81147 15.9838 4.93973 15.9668 5.06577C15.9498 5.19181 15.9042 5.31229 15.8334 5.41797L11.6668 10.0013V15.8346L8.33342 13.3346V10.0013L4.16676 5.41797C4.096 5.31229 4.05037 5.19181 4.03336 5.06577C4.01636 4.93973 4.02842 4.81147 4.06864 4.69082C4.10886 4.57016 4.17616 4.46032 4.26539 4.36969C4.35462 4.27906 4.46341 4.21006 4.58342 4.16797Z" stroke="#64748B" stroke-width="1.5" stroke-linecap="round" stroke-linejoin="round"/>
</svg>
