<svg width="22" height="22" viewBox="0 0 22 22" fill="none" xmlns="http://www.w3.org/2000/svg">
<path d="M11.5134 19.085C11.3638 19.1924 11.1842 19.2502 11 19.2502C10.8159 19.2502 10.6363 19.1924 10.4867 19.085C6.06013 15.9298 1.36221 9.43983 6.11146 4.75017C7.41527 3.46761 9.17114 2.7492 11 2.75C12.8334 2.75 14.5925 3.46958 15.8886 4.74925C20.6379 9.43892 15.94 15.928 11.5134 19.085Z" stroke="#64748B" stroke-width="1.5" stroke-linecap="round" stroke-linejoin="round"/>
<path d="M11.0001 10.9987C11.4863 10.9987 11.9526 10.8055 12.2964 10.4617C12.6403 10.1179 12.8334 9.65159 12.8334 9.16536C12.8334 8.67913 12.6403 8.21282 12.2964 7.869C11.9526 7.52519 11.4863 7.33203 11.0001 7.33203C10.5139 7.33203 10.0475 7.52519 9.70372 7.869C9.3599 8.21282 9.16675 8.67913 9.16675 9.16536C9.16675 9.65159 9.3599 10.1179 9.70372 10.4617C10.0475 10.8055 10.5139 10.9987 11.0001 10.9987Z" stroke="#64748B" stroke-width="1.5" stroke-linecap="round" stroke-linejoin="round"/>
</svg>
