<svg width="22" height="22" viewBox="0 0 22 22" fill="none" xmlns="http://www.w3.org/2000/svg">
<path d="M15.0539 17.3034V16.0812C15.0539 15.4329 14.74 14.8111 14.1813 14.3527C13.6226 13.8943 12.8648 13.6367 12.0747 13.6367H6.11637C5.32625 13.6367 4.56849 13.8943 4.00978 14.3527C3.45108 14.8111 3.13721 15.4329 3.13721 16.0812V17.3034" stroke="#475569" stroke-width="1.5" stroke-linecap="round" stroke-linejoin="round"/>
<path d="M8.63721 9.96875C10.156 9.96875 11.3872 8.73753 11.3872 7.21875C11.3872 5.69997 10.156 4.46875 8.63721 4.46875C7.11842 4.46875 5.88721 5.69997 5.88721 7.21875C5.88721 8.73753 7.11842 9.96875 8.63721 9.96875Z" stroke="#475569" stroke-width="1.5" stroke-linecap="round" stroke-linejoin="round"/>
<path d="M18.7205 17.3034V16.0541C18.7201 15.5005 18.5399 14.9627 18.208 14.5252C17.8762 14.0876 17.4116 13.7751 16.8872 13.6367" stroke="#475569" stroke-width="1.5" stroke-linecap="round" stroke-linejoin="round"/>
<path d="M14.1372 4.46875C14.6616 4.62509 15.1265 4.98022 15.4584 5.47813C15.7904 5.97605 15.9705 6.58844 15.9705 7.21875C15.9705 7.84906 15.7904 8.46145 15.4584 8.95937C15.1265 9.45728 14.6616 9.81241 14.1372 9.96875" stroke="#475569" stroke-width="1.5" stroke-linecap="round" stroke-linejoin="round"/>
</svg>
