<svg width="17" height="17" viewBox="0 0 17 17" fill="none" xmlns="http://www.w3.org/2000/svg">
<path d="M5.33333 0.75H1.66667C1.16041 0.75 0.75 1.16041 0.75 1.66667V5.33333C0.75 5.83959 1.16041 6.25 1.66667 6.25H5.33333C5.83959 6.25 6.25 5.83959 6.25 5.33333V1.66667C6.25 1.16041 5.83959 0.75 5.33333 0.75Z" stroke="#64748B" stroke-width="1.5" stroke-linecap="round" stroke-linejoin="round"/>
<path d="M14.5 0.75H10.8333C10.3271 0.75 9.91667 1.16041 9.91667 1.66667V5.33333C9.91667 5.83959 10.3271 6.25 10.8333 6.25H14.5C15.0063 6.25 15.4167 5.83959 15.4167 5.33333V1.66667C15.4167 1.16041 15.0063 0.75 14.5 0.75Z" stroke="#64748B" stroke-width="1.5" stroke-linecap="round" stroke-linejoin="round"/>
<path d="M5.33333 9.91667H1.66667C1.16041 9.91667 0.75 10.3271 0.75 10.8333V14.5C0.75 15.0063 1.16041 15.4167 1.66667 15.4167H5.33333C5.83959 15.4167 6.25 15.0063 6.25 14.5V10.8333C6.25 10.3271 5.83959 9.91667 5.33333 9.91667Z" stroke="#64748B" stroke-width="1.5" stroke-linecap="round" stroke-linejoin="round"/>
<path d="M14.5 9.91667H10.8333C10.3271 9.91667 9.91667 10.3271 9.91667 10.8333V14.5C9.91667 15.0063 10.3271 15.4167 10.8333 15.4167H14.5C15.0063 15.4167 15.4167 15.0063 15.4167 14.5V10.8333C15.4167 10.3271 15.0063 9.91667 14.5 9.91667Z" stroke="#64748B" stroke-width="1.5" stroke-linecap="round" stroke-linejoin="round"/>
</svg>
