<svg width="41" height="41" viewBox="0 0 41 41" fill="none" xmlns="http://www.w3.org/2000/svg">
<path d="M0.5 0.5V40.5" stroke="#E2E8F0" stroke-linecap="round"/>
<path d="M33.2 16.5C33.001 15.9352 32.6374 15.443 32.1563 15.0865C31.6751 14.7301 31.0983 14.5258 30.5 14.5H26.5C25.7044 14.5 24.9413 14.8161 24.3787 15.3787C23.8161 15.9413 23.5 16.7044 23.5 17.5C23.5 18.2956 23.8161 19.0587 24.3787 19.6213C24.9413 20.1839 25.7044 20.5 26.5 20.5H30.5C31.2956 20.5 32.0587 20.8161 32.6213 21.3787C33.1839 21.9413 33.5 22.7044 33.5 23.5C33.5 24.2956 33.1839 25.0587 32.6213 25.6213C32.0587 26.1839 31.2956 26.5 30.5 26.5H26.5C25.9017 26.4742 25.3249 26.2699 24.8437 25.9135C24.3626 25.557 23.999 25.0648 23.8 24.5" stroke="#64748B" stroke-width="1.5" stroke-linecap="round" stroke-linejoin="round"/>
<path d="M28.5 26.5V29.5M28.5 11.5V14.5V11.5Z" stroke="#64748B" stroke-width="1.5" stroke-linecap="round" stroke-linejoin="round"/>
</svg>
